<svg xmlns="http://www.w3.org/2000/svg" viewBox="-60 -60 900 900">
    <rect x="-60" y="-60" width="900" height="900" fill="#1C0E19" rx="60" ry="60"/>
	<g fill="#E2E8EF">
        <rect x="185" y="130" width="130" height="120" rx="10" ry="10"/>
        <rect x="185" y="260" width="130" height="120" rx="10" ry="10"/>
        <rect x="185" y="390" width="130" height="120" rx="10" ry="10"/>
        <rect x="185" y="520" width="130" height="120" rx="10" ry="10"/>
        <rect x="185" y="650" width="130" height="120" rx="10" ry="10"/>

        <rect x="325" y="70" width="130" height="120" rx="10" ry="10"/>
        <rect x="325" y="330" width="130" height="120" rx="10" ry="10"/>
        <rect x="325" y="590" width="130" height="120" rx="10" ry="10"/>

        <rect x="465" y="10" width="130" height="120" rx="10" ry="10"/>
        <rect x="465" y="270" width="130" height="120" rx="10" ry="10"/>
        <rect x="465" y="530" width="130" height="120" rx="10" ry="10"/>
	</g>
</svg>
